{
  "source": "C:\\Users\\Peter\\Desktop\\stuff\\MIUN\\quantitative_research\\video_compression\\videos\\HEVC_CLASS_B\\Cactus_1920x1080_50.y4m",
  "output": "C:\\Users\\Peter\\Desktop\\stuff\\MIUN\\quantitative_research\\video_compression\\compressed_videos\\HEVC_CLASS_B\\vp9\\8\\Cactus_1920x1080_50_vp9.webm",
  "codec": "vp9",
  "ok": "Input #0, yuv4mpegpipe, from 'C:\\Users\\Peter\\Desktop\\stuff\\MIUN\\quantitative_research\\video_compression\\videos\\HEVC_CLASS_B\\Cactus_1920x1080_50.y4m':\n  Duration: 00:00:10.00, start: 0.000000, bitrate: 1244162 kb/s\n  Stream #0:0: Video: rawvideo (I420 / 0x30323449), yuv420p(progressive), 1920x1080, 50 fps, 50 tbr, 50 tbn\n[out#0/webm @ 000001f0f47c9b00] Codec AVOption b:a (set bitrate (in bits/s)) has not been used for any stream. The most likely reason is either wrong type (e.g. a video option with no video streams) or that it is a private option of some decoder which was not actually used for any stream.\nStream mapping:\n  Stream #0:0 -> #0:0 (rawvideo (native) -> vp9 (libvpx-vp9))\nPress [q] to stop, [?] for help\n[libvpx-vp9 @ 000001f0f47cbf40] v1.15.2-100-g40561f514\nOutput #0, webm, to 'C:\\Users\\Peter\\Desktop\\stuff\\MIUN\\quantitative_research\\video_compression\\compressed_videos\\HEVC_CLASS_B\\vp9\\8\\Cactus_1920x1080_50_vp9.webm':\n  Metadata:\n    encoder         : Lavf62.3.100\n  Stream #0:0: Video: vp9, yuv420p(tv, progressive), 1920x1080, q=2-31, 8000 kb/s, 50 fps, 1k tbn\n    Metadata:\n      encoder         : Lavc62.11.100 libvpx-vp9\n    Side data:\n      cpb: bitrate max/min/avg: 0/0/0 buffer size: 8000000 vbv_delay: N/A\nframe=    1 fps=0.0 q=12.0 size=       0KiB time=00:00:00.02 bitrate= 192.8kbits/s speed=0.0389x elapsed=0:00:00.51    \nframe=    6 fps=5.7 q=40.0 size=       0KiB time=00:00:00.12 bitrate=  32.1kbits/s speed=0.114x elapsed=0:00:01.05    \nframe=   11 fps=7.0 q=36.0 size=       0KiB time=00:00:00.22 bitrate=  17.5kbits/s speed=0.14x elapsed=0:00:01.56    \nframe=   14 fps=6.7 q=35.0 size=       0KiB time=00:00:00.28 bitrate=  13.8kbits/s speed=0.134x elapsed=0:00:02.08    \nframe=   18 fps=6.9 q=37.0 size=       0KiB time=00:00:00.36 bitrate=  10.7kbits/s speed=0.138x elapsed=0:00:02.60    \nframe=   22 fps=7.1 q=38.0 size=       0KiB time=00:00:00.44 bitrate=   8.8kbits/s speed=0.141x elapsed=0:00:03.12    \nframe=   25 fps=6.8 q=37.0 size=       0KiB time=00:00:00.50 bitrate=   7.7kbits/s speed=0.137x elapsed=0:00:03.65    \nframe=   29 fps=7.0 q=38.0 size=       0KiB time=00:00:00.58 bitrate=   6.6kbits/s speed=0.139x elapsed=0:00:04.17    \nframe=   33 fps=7.0 q=38.0 size=       0KiB time=00:00:00.66 bitrate=   5.8kbits/s speed=0.141x elapsed=0:00:04.69    \nframe=   36 fps=6.9 q=37.0 size=       0KiB time=00:00:00.72 bitrate=   5.4kbits/s speed=0.138x elapsed=0:00:05.21    \nframe=   40 fps=7.0 q=38.0 size=       0KiB time=00:00:00.80 bitrate=   4.8kbits/s speed=0.14x elapsed=0:00:05.72    \nframe=   44 fps=7.0 q=39.0 size=       0KiB time=00:00:00.88 bitrate=   4.4kbits/s speed=0.141x elapsed=0:00:06.24    \nframe=   47 fps=6.9 q=37.0 size=       0KiB time=00:00:00.94 bitrate=   4.1kbits/s speed=0.139x elapsed=0:00:06.77    \nframe=   51 fps=7.0 q=39.0 size=       0KiB time=00:00:01.02 bitrate=   3.8kbits/s speed=0.14x elapsed=0:00:07.29    \nframe=   55 fps=7.0 q=39.0 size=       0KiB time=00:00:01.10 bitrate=   3.5kbits/s speed=0.141x elapsed=0:00:07.82    \nframe=   58 fps=6.9 q=37.0 size=       0KiB time=00:00:01.16 bitrate=   3.3kbits/s speed=0.139x elapsed=0:00:08.35    \nframe=   62 fps=7.0 q=38.0 size=       0KiB time=00:00:01.24 bitrate=   3.1kbits/s speed=0.14x elapsed=0:00:08.86    \nframe=   66 fps=7.0 q=37.0 size=       0KiB time=00:00:01.32 bitrate=   2.9kbits/s speed=0.14x elapsed=0:00:09.39    \nframe=   69 fps=7.0 q=36.0 size=       0KiB time=00:00:01.38 bitrate=   2.8kbits/s speed=0.139x elapsed=0:00:09.91    \nframe=   73 fps=7.0 q=38.0 size=       0KiB time=00:00:01.46 bitrate=   2.6kbits/s speed=0.14x elapsed=0:00:10.44    \nframe=   76 fps=6.9 q=39.0 size=       0KiB time=00:00:01.52 bitrate=   2.5kbits/s speed=0.139x elapsed=0:00:10.96    \nframe=   78 fps=6.8 q=21.0 size=       0KiB time=00:00:01.56 bitrate=   2.5kbits/s speed=0.136x elapsed=0:00:11.48    \nframe=   81 fps=6.7 q=37.0 size=       0KiB time=00:00:01.62 bitrate=   2.4kbits/s speed=0.134x elapsed=0:00:12.06    \nframe=   83 fps=6.6 q=38.0 size=       0KiB time=00:00:01.66 bitrate=   2.3kbits/s speed=0.132x elapsed=0:00:12.61    \nframe=   86 fps=6.5 q=38.0 size=       0KiB time=00:00:01.72 bitrate=   2.2kbits/s speed=0.131x elapsed=0:00:13.14    \nframe=   88 fps=6.4 q=38.0 size=       0KiB time=00:00:01.76 bitrate=   2.2kbits/s speed=0.129x elapsed=0:00:13.69    \nframe=   89 fps=6.2 q=21.0 size=       0KiB time=00:00:01.78 bitrate=   2.2kbits/s speed=0.125x elapsed=0:00:14.25    \nframe=   92 fps=6.2 q=37.0 size=       0KiB time=00:00:01.84 bitrate=   2.1kbits/s speed=0.124x elapsed=0:00:14.82    \nframe=   94 fps=6.1 q=38.0 size=       0KiB time=00:00:01.88 bitrate=   2.1kbits/s speed=0.122x elapsed=0:00:15.35    \nframe=   97 fps=6.1 q=38.0 size=       0KiB time=00:00:01.94 bitrate=   2.0kbits/s speed=0.122x elapsed=0:00:15.91    \nframe=   99 fps=6.0 q=38.0 size=       0KiB time=00:00:01.98 bitrate=   1.9kbits/s speed=0.12x elapsed=0:00:16.46    \nframe=  103 fps=6.1 q=37.0 size=       0KiB time=00:00:02.06 bitrate=   1.9kbits/s speed=0.121x elapsed=0:00:16.98    \nframe=  107 fps=6.1 q=38.0 size=       0KiB time=00:00:02.14 bitrate=   1.8kbits/s speed=0.122x elapsed=0:00:17.51    \nframe=  110 fps=6.1 q=38.0 size=       0KiB time=00:00:02.20 bitrate=   1.8kbits/s speed=0.122x elapsed=0:00:18.04    \nframe=  114 fps=6.1 q=38.0 size=       0KiB time=00:00:02.28 bitrate=   1.7kbits/s speed=0.123x elapsed=0:00:18.58    \nframe=  119 fps=6.2 q=37.0 size=       0KiB time=00:00:02.38 bitrate=   1.6kbits/s speed=0.125x elapsed=0:00:19.08    \nframe=  121 fps=6.2 q=37.0 size=       0KiB time=00:00:02.42 bitrate=   1.6kbits/s speed=0.123x elapsed=0:00:19.61    \nframe=  125 fps=6.2 q=37.0 size=       0KiB time=00:00:02.50 bitrate=   1.5kbits/s speed=0.124x elapsed=0:00:20.13    \nframe=  128 fps=6.2 q=38.0 size=       0KiB time=00:00:02.56 bitrate=   1.5kbits/s speed=0.124x elapsed=0:00:20.66    \nframe=  133 fps=6.3 q=37.0 size=    2560KiB time=00:00:02.66 bitrate=7884.0kbits/s speed=0.126x elapsed=0:00:21.18    \nframe=  137 fps=6.3 q=38.0 size=    2560KiB time=00:00:02.74 bitrate=7653.8kbits/s speed=0.126x elapsed=0:00:21.70    \nframe=  140 fps=6.3 q=19.0 size=    2560KiB time=00:00:02.80 bitrate=7489.8kbits/s speed=0.126x elapsed=0:00:22.21    \nframe=  144 fps=6.3 q=37.0 size=    2560KiB time=00:00:02.88 bitrate=7281.8kbits/s speed=0.127x elapsed=0:00:22.72    \nframe=  148 fps=6.4 q=38.0 size=    2560KiB time=00:00:02.96 bitrate=7085.0kbits/s speed=0.127x elapsed=0:00:23.24    \nframe=  150 fps=6.3 q=38.0 size=    2560KiB time=00:00:03.00 bitrate=6990.5kbits/s speed=0.126x elapsed=0:00:23.75    \nframe=  155 fps=6.4 q=37.0 size=    2560KiB time=00:00:03.10 bitrate=6765.0kbits/s speed=0.128x elapsed=0:00:24.28    \nframe=  159 fps=6.4 q=38.0 size=    2560KiB time=00:00:03.18 bitrate=6594.8kbits/s speed=0.128x elapsed=0:00:24.80    \nframe=  161 fps=6.4 q=38.0 size=    2560KiB time=00:00:03.22 bitrate=6512.9kbits/s speed=0.127x elapsed=0:00:25.31    \nframe=  165 fps=6.4 q=37.0 size=    2560KiB time=00:00:03.30 bitrate=6355.0kbits/s speed=0.128x elapsed=0:00:25.83    \nframe=  169 fps=6.4 q=37.0 size=    2560KiB time=00:00:03.38 bitrate=6204.6kbits/s speed=0.128x elapsed=0:00:26.35    \nframe=  172 fps=6.4 q=37.0 size=    2560KiB time=00:00:03.44 bitrate=6096.4kbits/s speed=0.128x elapsed=0:00:26.87    \nframe=  176 fps=6.4 q=34.0 size=    2560KiB time=00:00:03.52 bitrate=5957.8kbits/s speed=0.129x elapsed=0:00:27.38    \nframe=  180 fps=6.5 q=36.0 size=    2560KiB time=00:00:03.60 bitrate=5825.4kbits/s speed=0.129x elapsed=0:00:27.90    \nframe=  183 fps=6.4 q=37.0 size=    2560KiB time=00:00:03.66 bitrate=5729.9kbits/s speed=0.129x elapsed=0:00:28.41    \nframe=  187 fps=6.5 q=36.0 size=    2560KiB time=00:00:03.74 bitrate=5607.4kbits/s speed=0.129x elapsed=0:00:28.93    \nframe=  191 fps=6.5 q=36.0 size=    2560KiB time=00:00:03.82 bitrate=5489.9kbits/s speed=0.13x elapsed=0:00:29.44    \nframe=  194 fps=6.5 q=36.0 size=    2560KiB time=00:00:03.88 bitrate=5405.0kbits/s speed=0.129x elapsed=0:00:29.98    \nframe=  198 fps=6.5 q=35.0 size=    2560KiB time=00:00:03.96 bitrate=5295.8kbits/s speed=0.13x elapsed=0:00:30.50    \nframe=  202 fps=6.5 q=36.0 size=    2560KiB time=00:00:04.04 bitrate=5191.0kbits/s speed=0.13x elapsed=0:00:31.03    \nframe=  205 fps=6.5 q=36.0 size=    2560KiB time=00:00:04.10 bitrate=5115.0kbits/s speed=0.13x elapsed=0:00:31.54    \nframe=  209 fps=6.5 q=35.0 size=    2560KiB time=00:00:04.18 bitrate=5017.1kbits/s speed=0.13x elapsed=0:00:32.07    \nframe=  213 fps=6.5 q=37.0 size=    2560KiB time=00:00:04.26 bitrate=4922.9kbits/s speed=0.131x elapsed=0:00:32.58    \nframe=  216 fps=6.5 q=37.0 size=    2560KiB time=00:00:04.32 bitrate=4854.5kbits/s speed=0.131x elapsed=0:00:33.10    \nframe=  220 fps=6.5 q=36.0 size=    2560KiB time=00:00:04.40 bitrate=4766.3kbits/s speed=0.131x elapsed=0:00:33.62    \nframe=  224 fps=6.6 q=37.0 size=    2560KiB time=00:00:04.48 bitrate=4681.1kbits/s speed=0.131x elapsed=0:00:34.14    \nframe=  227 fps=6.5 q=37.0 size=    2560KiB time=00:00:04.54 bitrate=4619.3kbits/s speed=0.131x elapsed=0:00:34.67    \nframe=  231 fps=6.6 q=35.0 size=    2560KiB time=00:00:04.62 bitrate=4539.3kbits/s speed=0.131x elapsed=0:00:35.20    \nframe=  236 fps=6.6 q=37.0 size=    2560KiB time=00:00:04.72 bitrate=4443.1kbits/s speed=0.132x elapsed=0:00:35.73    \nframe=  238 fps=6.6 q=37.0 size=    2560KiB time=00:00:04.76 bitrate=4405.8kbits/s speed=0.131x elapsed=0:00:36.25    \nframe=  243 fps=6.6 q=39.0 size=    2560KiB time=00:00:04.86 bitrate=4315.1kbits/s speed=0.132x elapsed=0:00:36.77    \nframe=  247 fps=6.6 q=39.0 size=    2560KiB time=00:00:04.94 bitrate=4245.2kbits/s speed=0.132x elapsed=0:00:37.29    \nframe=  250 fps=6.6 q=37.0 size=    2560KiB time=00:00:05.00 bitrate=4194.3kbits/s speed=0.132x elapsed=0:00:37.83    \nframe=  254 fps=6.6 q=38.0 size=    2560KiB time=00:00:05.08 bitrate=4128.3kbits/s speed=0.132x elapsed=0:00:38.36    \nframe=  256 fps=6.6 q=38.0 size=    2560KiB time=00:00:05.12 bitrate=4096.0kbits/s speed=0.132x elapsed=0:00:38.89    \nframe=  261 fps=6.6 q=37.0 size=    5376KiB time=00:00:05.22 bitrate=8436.8kbits/s speed=0.132x elapsed=0:00:39.40    \nframe=  266 fps=6.7 q=37.0 size=    5376KiB time=00:00:05.32 bitrate=8278.2kbits/s speed=0.133x elapsed=0:00:39.91    \nframe=  269 fps=6.7 q=38.0 size=    5376KiB time=00:00:05.38 bitrate=8185.9kbits/s speed=0.133x elapsed=0:00:40.42    \nframe=  273 fps=6.7 q=37.0 size=    5376KiB time=00:00:05.46 bitrate=8066.0kbits/s speed=0.133x elapsed=0:00:40.94    \nframe=  277 fps=6.7 q=38.0 size=    5376KiB time=00:00:05.54 bitrate=7949.5kbits/s speed=0.134x elapsed=0:00:41.46    \nframe=  280 fps=6.7 q=38.0 size=    5376KiB time=00:00:05.60 bitrate=7864.3kbits/s speed=0.133x elapsed=0:00:41.97    \nframe=  284 fps=6.7 q=35.0 size=    5376KiB time=00:00:05.68 bitrate=7753.6kbits/s speed=0.134x elapsed=0:00:42.49    \nframe=  288 fps=6.7 q=35.0 size=    5376KiB time=00:00:05.76 bitrate=7645.9kbits/s speed=0.134x elapsed=0:00:43.00    \nframe=  291 fps=6.7 q=36.0 size=    5376KiB time=00:00:05.82 bitrate=7567.0kbits/s speed=0.134x elapsed=0:00:43.52    \nframe=  295 fps=6.7 q=36.0 size=    5376KiB time=00:00:05.90 bitrate=7464.4kbits/s speed=0.134x elapsed=0:00:44.06    \nframe=  299 fps=6.7 q=37.0 size=    5376KiB time=00:00:05.98 bitrate=7364.6kbits/s speed=0.134x elapsed=0:00:44.58    \nframe=  302 fps=6.7 q=37.0 size=    5376KiB time=00:00:06.04 bitrate=7291.4kbits/s speed=0.134x elapsed=0:00:45.09    \nframe=  306 fps=6.7 q=36.0 size=    5376KiB time=00:00:06.12 bitrate=7196.1kbits/s speed=0.134x elapsed=0:00:45.61    \nframe=  310 fps=6.7 q=36.0 size=    5376KiB time=00:00:06.20 bitrate=7103.3kbits/s speed=0.134x elapsed=0:00:46.13    \nframe=  313 fps=6.7 q=37.0 size=    5376KiB time=00:00:06.26 bitrate=7035.2kbits/s speed=0.134x elapsed=0:00:46.64    \nframe=  317 fps=6.7 q=37.0 size=    5376KiB time=00:00:06.34 bitrate=6946.4kbits/s speed=0.134x elapsed=0:00:47.18    \nframe=  321 fps=6.7 q=38.0 size=    5376KiB time=00:00:06.42 bitrate=6859.8kbits/s speed=0.135x elapsed=0:00:47.70    \nframe=  323 fps=6.7 q=20.0 size=    5376KiB time=00:00:06.46 bitrate=6817.4kbits/s speed=0.134x elapsed=0:00:48.23    \nframe=  327 fps=6.7 q=39.0 size=    5376KiB time=00:00:06.54 bitrate=6734.0kbits/s speed=0.134x elapsed=0:00:48.75    \nframe=  331 fps=6.7 q=39.0 size=    5376KiB time=00:00:06.62 bitrate=6652.6kbits/s speed=0.134x elapsed=0:00:49.27    \nframe=  333 fps=6.7 q=39.0 size=    5376KiB time=00:00:06.66 bitrate=6612.6kbits/s speed=0.134x elapsed=0:00:49.79    \nframe=  338 fps=6.7 q=37.0 size=    5376KiB time=00:00:06.76 bitrate=6514.8kbits/s speed=0.134x elapsed=0:00:50.30    \nframe=  342 fps=6.7 q=37.0 size=    5376KiB time=00:00:06.84 bitrate=6438.6kbits/s speed=0.135x elapsed=0:00:50.82    \nframe=  344 fps=6.7 q=38.0 size=    5376KiB time=00:00:06.88 bitrate=6401.2kbits/s speed=0.134x elapsed=0:00:51.34    \nframe=  348 fps=6.7 q=37.0 size=    5376KiB time=00:00:06.96 bitrate=6327.6kbits/s speed=0.134x elapsed=0:00:51.84    \nframe=  352 fps=6.7 q=39.0 size=    5376KiB time=00:00:07.04 bitrate=6255.7kbits/s speed=0.134x elapsed=0:00:52.36    \nframe=  355 fps=6.7 q=39.0 size=    5376KiB time=00:00:07.10 bitrate=6202.8kbits/s speed=0.134x elapsed=0:00:52.88    \nframe=  359 fps=6.7 q=38.0 size=    5376KiB time=00:00:07.18 bitrate=6133.7kbits/s speed=0.134x elapsed=0:00:53.40    \nframe=  363 fps=6.7 q=39.0 size=    5376KiB time=00:00:07.26 bitrate=6066.1kbits/s speed=0.135x elapsed=0:00:53.92    \nframe=  366 fps=6.7 q=38.0 size=    5376KiB time=00:00:07.32 bitrate=6016.4kbits/s speed=0.134x elapsed=0:00:54.44    \nframe=  370 fps=6.7 q=39.0 size=    5376KiB time=00:00:07.40 bitrate=5951.4kbits/s speed=0.135x elapsed=0:00:54.97    \nframe=  374 fps=6.7 q=39.0 size=    5376KiB time=00:00:07.48 bitrate=5887.7kbits/s speed=0.135x elapsed=0:00:55.50    \nframe=  377 fps=6.7 q=39.0 size=    5376KiB time=00:00:07.54 bitrate=5840.9kbits/s speed=0.135x elapsed=0:00:56.04    \nframe=  382 fps=6.8 q=39.0 size=    5376KiB time=00:00:07.64 bitrate=5764.4kbits/s speed=0.135x elapsed=0:00:56.57    \nframe=  384 fps=6.7 q=39.0 size=    5376KiB time=00:00:07.68 bitrate=5734.4kbits/s speed=0.134x elapsed=0:00:57.10    \nframe=  389 fps=6.7 q=38.0 size=    7936KiB time=00:00:07.78 bitrate=8356.3kbits/s speed=0.135x elapsed=0:00:57.63    \nframe=  393 fps=6.8 q=38.0 size=    7936KiB time=00:00:07.86 bitrate=8271.2kbits/s speed=0.135x elapsed=0:00:58.15    \nframe=  396 fps=6.7 q=19.0 size=    7936KiB time=00:00:07.92 bitrate=8208.5kbits/s speed=0.135x elapsed=0:00:58.66    \nframe=  400 fps=6.8 q=37.0 size=    7936KiB time=00:00:08.00 bitrate=8126.5kbits/s speed=0.135x elapsed=0:00:59.18    \nframe=  404 fps=6.8 q=38.0 size=    7936KiB time=00:00:08.08 bitrate=8046.0kbits/s speed=0.135x elapsed=0:00:59.71    \nframe=  406 fps=6.7 q=39.0 size=    7936KiB time=00:00:08.12 bitrate=8006.4kbits/s speed=0.135x elapsed=0:01:00.23    \nframe=  411 fps=6.8 q=38.0 size=    7936KiB time=00:00:08.22 bitrate=7909.0kbits/s speed=0.135x elapsed=0:01:00.76    \nframe=  415 fps=6.8 q=38.0 size=    7936KiB time=00:00:08.30 bitrate=7832.7kbits/s speed=0.135x elapsed=0:01:01.29    \nframe=  418 fps=6.8 q=21.0 size=    7936KiB time=00:00:08.36 bitrate=7776.5kbits/s speed=0.135x elapsed=0:01:01.81    \nframe=  422 fps=6.8 q=38.0 size=    7936KiB time=00:00:08.44 bitrate=7702.8kbits/s speed=0.135x elapsed=0:01:02.34    \nframe=  426 fps=6.8 q=38.0 size=    7936KiB time=00:00:08.52 bitrate=7630.5kbits/s speed=0.136x elapsed=0:01:02.87    \nframe=  429 fps=6.8 q=21.0 size=    7936KiB time=00:00:08.58 bitrate=7577.1kbits/s speed=0.135x elapsed=0:01:03.40    \nframe=  433 fps=6.8 q=38.0 size=    7936KiB time=00:00:08.66 bitrate=7507.1kbits/s speed=0.135x elapsed=0:01:03.94    \nframe=  437 fps=6.8 q=39.0 size=    7936KiB time=00:00:08.74 bitrate=7438.4kbits/s speed=0.136x elapsed=0:01:04.44    \nframe=  439 fps=6.8 q=39.0 size=    7936KiB time=00:00:08.78 bitrate=7404.5kbits/s speed=0.135x elapsed=0:01:04.95    \nframe=  444 fps=6.8 q=38.0 size=    7936KiB time=00:00:08.88 bitrate=7321.1kbits/s speed=0.136x elapsed=0:01:05.48    \nframe=  448 fps=6.8 q=38.0 size=    7936KiB time=00:00:08.96 bitrate=7255.8kbits/s speed=0.136x elapsed=0:01:05.99    \nframe=  450 fps=6.8 q=36.0 size=    7936KiB time=00:00:09.00 bitrate=7223.5kbits/s speed=0.135x elapsed=0:01:06.51    \nframe=  454 fps=6.8 q=36.0 size=    7936KiB time=00:00:09.08 bitrate=7159.9kbits/s speed=0.135x elapsed=0:01:07.02    \nframe=  458 fps=6.8 q=37.0 size=    7936KiB time=00:00:09.16 bitrate=7097.3kbits/s speed=0.136x elapsed=0:01:07.54    \nframe=  461 fps=6.8 q=38.0 size=    7936KiB time=00:00:09.22 bitrate=7051.2kbits/s speed=0.135x elapsed=0:01:08.05    \nframe=  464 fps=6.8 q=37.0 size=    7936KiB time=00:00:09.28 bitrate=7005.6kbits/s speed=0.135x elapsed=0:01:08.57    \nframe=  468 fps=6.8 q=38.0 size=    7936KiB time=00:00:09.36 bitrate=6945.7kbits/s speed=0.135x elapsed=0:01:09.08    \nframe=  472 fps=6.8 q=38.0 size=    7936KiB time=00:00:09.44 bitrate=6886.8kbits/s speed=0.136x elapsed=0:01:09.61    \nframe=  474 fps=6.8 q=38.0 size=    7936KiB time=00:00:09.48 bitrate=6857.8kbits/s speed=0.135x elapsed=0:01:10.13    \nframe=  476 fps=6.7 q=37.0 size=    7936KiB time=00:00:09.52 bitrate=6829.0kbits/s speed=0.135x elapsed=0:01:10.65    \nframe=  476 fps=6.7 q=37.0 size=    7936KiB time=00:00:09.52 bitrate=6829.0kbits/s speed=0.134x elapsed=0:01:11.16    \nframe=  476 fps=6.6 q=37.0 size=    7936KiB time=00:00:09.52 bitrate=6829.0kbits/s speed=0.133x elapsed=0:01:11.68    \nframe=  476 fps=6.6 q=37.0 size=    7936KiB time=00:00:09.52 bitrate=6829.0kbits/s speed=0.132x elapsed=0:01:12.22    \nframe=  476 fps=6.5 q=37.0 size=    7936KiB time=00:00:09.52 bitrate=6829.0kbits/s speed=0.131x elapsed=0:01:12.74    \nframe=  476 fps=6.5 q=37.0 size=    7936KiB time=00:00:09.52 bitrate=6829.0kbits/s speed=0.13x elapsed=0:01:13.28    \n[out#0/webm @ 000001f0f47c9b00] video:10573KiB audio:0KiB subtitle:0KiB other streams:0KiB global headers:0KiB muxing overhead: 0.038388%\nframe=  500 fps=6.8 q=37.0 Lsize=   10577KiB time=00:00:10.00 bitrate=8664.4kbits/s speed=0.136x elapsed=0:01:13.54    \n",
  "seconds": 73.65472435951233,
  "probe_out": {}
}